HIERARCHY
ROOT hip
{
  OFFSET 0.00112043 5.09927 -9.65472
  CHANNELS 6 Xposition Yposition Zposition Zrotation Xrotation Yrotation
  JOINT abdomen
  {
    OFFSET 0 -1.186 -1.5018
    CHANNELS 3 Zrotation Xrotation Yrotation
    JOINT abdomen2
    {
      OFFSET 0 9.964 0.2134
      CHANNELS 3 Zrotation Xrotation Yrotation
      JOINT chest
      {
        OFFSET 0 13.134 -3.2573
        CHANNELS 3 Zrotation Xrotation Yrotation
        JOINT neck
        {
          OFFSET 0 20.686 -1.6905
          CHANNELS 3 Zrotation Xrotation Yrotation
          JOINT head
          {
            OFFSET 0 7.238 -0.1237
            CHANNELS 3 Zrotation Xrotation Yrotation
            End Site
            {
              OFFSET 0 0 0
            }
          }
        }
        JOINT lCollar
        {
          OFFSET 1.7069 20.075 5.0056
          CHANNELS 3 Zrotation Xrotation Yrotation
          JOINT lShldr
          {
            OFFSET 13.6458 -0.047 -4.849
            CHANNELS 3 Zrotation Xrotation Yrotation
            JOINT lForeArm
            {
              OFFSET 28.3255 -0.9759 2.2888
              CHANNELS 3 Zrotation Xrotation Yrotation
              JOINT lHand
              {
                OFFSET 22.1583 -0.53 10.8316
                CHANNELS 3 Zrotation Xrotation Yrotation
                JOINT lThumb1
                {
                  OFFSET 0.786 0.112 2.5817
                  CHANNELS 3 Zrotation Xrotation Yrotation
                  JOINT lThumb2
                  {
                    OFFSET 0.3601 -0.878 4.2331
                    CHANNELS 3 Zrotation Xrotation Yrotation
                    JOINT lThumb2_End
                    {
                      OFFSET 1.8127 -1.216 2.2227
                      CHANNELS 3 Zrotation Xrotation Yrotation
                      End Site
                      {
                        OFFSET 0.0181 -0.0122 0.0222
                      }
                    }
                  }
                }
                JOINT lCarpal1
                {
                  OFFSET 0.9571 1.114 1.7695
                  CHANNELS 3 Zrotation Xrotation Yrotation
                  JOINT lIndex1
                  {
                    OFFSET 4.1246 0.487 4.1451
                    CHANNELS 3 Zrotation Xrotation Yrotation
                    JOINT lIndex2
                    {
                      OFFSET 3.4052 -1.454 2.7682
                      CHANNELS 3 Zrotation Xrotation Yrotation
                      JOINT lIndex2_End
                      {
                        OFFSET 1.4531 -1.795 1.2713
                        CHANNELS 3 Zrotation Xrotation Yrotation
                        End Site
                        {
                          OFFSET 0.0145 -0.0179 0.0127
                        }
                      }
                    }
                  }
                  JOINT lMid1
                  {
                    OFFSET 5.6954 0.21 2.1184
                    CHANNELS 3 Zrotation Xrotation Yrotation
                    JOINT lMid2
                    {
                      OFFSET 3.9766 -1.54 2.3863
                      CHANNELS 3 Zrotation Xrotation Yrotation
                      JOINT lMid2_End
                      {
                        OFFSET 1.4042 -1.926 1.125
                        CHANNELS 3 Zrotation Xrotation Yrotation
                        End Site
                        {
                          OFFSET 0.014 -0.0193 0.0113
                        }
                      }
                    }
                  }
                }
                JOINT lCarpal2
                {
                  OFFSET 2.0956 0.66 -0.3894
                  CHANNELS 3 Zrotation Xrotation Yrotation
                  JOINT lRing1
                  {
                    OFFSET 5.0395 -0.09 2.4971
                    CHANNELS 3 Zrotation Xrotation Yrotation
                    JOINT lRing2
                    {
                      OFFSET 3.7921 -1.552 1.4806
                      CHANNELS 3 Zrotation Xrotation Yrotation
                      JOINT lRing2_End
                      {
                        OFFSET 1.4655 -1.808 0.9609
                        CHANNELS 3 Zrotation Xrotation Yrotation
                        End Site
                        {
                          OFFSET 0.0147 -0.0181 0.0096
                        }
                      }
                    }
                  }
                  JOINT lPinky1
                  {
                    OFFSET 4.9141 -1.269 0.3591
                    CHANNELS 3 Zrotation Xrotation Yrotation
                    JOINT lPinky2
                    {
                      OFFSET 3.1477 -1.685 0.8462
                      CHANNELS 3 Zrotation Xrotation Yrotation
                      JOINT lPinky2_End
                      {
                        OFFSET 0.8055 -1.585 0.7955
                        CHANNELS 3 Zrotation Xrotation Yrotation
                        End Site
                        {
                          OFFSET 0.0081 -0.0158 0.008
                        }
                      }
                    }
                  }
                }
              }
            }
          }
        }
        JOINT rCollar
        {
          OFFSET -1.7069 20.075 5.0056
          CHANNELS 3 Zrotation Xrotation Yrotation
          JOINT rShldr
          {
            OFFSET -13.6458 -0.047 -4.849
            CHANNELS 3 Zrotation Xrotation Yrotation
            JOINT rForeArm
            {
              OFFSET -28.3255 -0.9759 2.2888
              CHANNELS 3 Zrotation Xrotation Yrotation
              JOINT rHand
              {
                OFFSET -22.1583 -0.53 10.8316
                CHANNELS 3 Zrotation Xrotation Yrotation
                JOINT rThumb1
                {
                  OFFSET -0.786 0.112 2.5817
                  CHANNELS 3 Zrotation Xrotation Yrotation
                  JOINT rThumb2
                  {
                    OFFSET -0.3601 -0.878 4.2331
                    CHANNELS 3 Zrotation Xrotation Yrotation
                    JOINT rThumb2_End
                    {
                      OFFSET -1.8127 -1.216 2.2227
                      CHANNELS 3 Zrotation Xrotation Yrotation
                      End Site
                      {
                        OFFSET -0.0181 -0.0122 0.0222
                      }
                    }
                  }
                }
                JOINT rCarpal1
                {
                  OFFSET -0.9571 1.114 1.7695
                  CHANNELS 3 Zrotation Xrotation Yrotation
                  JOINT rIndex1
                  {
                    OFFSET -4.1246 0.487 4.1451
                    CHANNELS 3 Zrotation Xrotation Yrotation
                    JOINT rIndex2
                    {
                      OFFSET -3.4052 -1.454 2.7682
                      CHANNELS 3 Zrotation Xrotation Yrotation
                      JOINT rIndex2_End
                      {
                        OFFSET -1.4531 -1.795 1.2713
                        CHANNELS 3 Zrotation Xrotation Yrotation
                        End Site
                        {
                          OFFSET -0.0145 -0.018 0.0127
                        }
                      }
                    }
                  }
                  JOINT rMid1
                  {
                    OFFSET -5.6954 0.21 2.1184
                    CHANNELS 3 Zrotation Xrotation Yrotation
                    JOINT rMid2
                    {
                      OFFSET -3.9766 -1.54 2.3863
                      CHANNELS 3 Zrotation Xrotation Yrotation
                      JOINT rMid2_End
                      {
                        OFFSET -1.4042 -1.926 1.125
                        CHANNELS 3 Zrotation Xrotation Yrotation
                        End Site
                        {
                          OFFSET -0.014 -0.0193 0.0113
                        }
                      }
                    }
                  }
                }
                JOINT rCarpal2
                {
                  OFFSET -2.0956 0.66 -0.3894
                  CHANNELS 3 Zrotation Xrotation Yrotation
                  JOINT rRing1
                  {
                    OFFSET -5.0395 -0.09 2.4971
                    CHANNELS 3 Zrotation Xrotation Yrotation
                    JOINT rRing2
                    {
                      OFFSET -3.7921 -1.552 1.4806
                      CHANNELS 3 Zrotation Xrotation Yrotation
                      JOINT rRing2_End
                      {
                        OFFSET -1.4655 -1.808 0.9609
                        CHANNELS 3 Zrotation Xrotation Yrotation
                        End Site
                        {
                          OFFSET -0.0147 -0.0181 0.0096
                        }
                      }
                    }
                  }
                  JOINT rPinky1
                  {
                    OFFSET -4.9141 -1.269 0.3592
                    CHANNELS 3 Zrotation Xrotation Yrotation
                    JOINT rPinky2
                    {
                      OFFSET -3.1477 -1.685 0.8462
                      CHANNELS 3 Zrotation Xrotation Yrotation
                      JOINT rPinky2_End
                      {
                        OFFSET -0.8055 -1.585 0.7955
                        CHANNELS 3 Zrotation Xrotation Yrotation
                        End Site
                        {
                          OFFSET -0.0081 -0.0158 0.008
                        }
                      }
                    }
                  }
                }
              }
            }
          }
        }
      }
    }
  }
  JOINT lThigh
  {
    OFFSET 8.367 -8.2066 0.5982
    CHANNELS 3 Zrotation Xrotation Yrotation
    JOINT lShin
    {
      OFFSET 2.1923 -43.463 -0.4932
      CHANNELS 3 Zrotation Xrotation Yrotation
      JOINT lFoot
      {
        OFFSET 0.7333 -45.8593 -2.6451
        CHANNELS 3 Zrotation Xrotation Yrotation
        End Site
        {
          OFFSET 2.6618 -4.2699 12.3931
        }
      }
    }
  }
  JOINT rThigh
  {
    OFFSET -8.367 -8.2066 0.5982
    CHANNELS 3 Zrotation Xrotation Yrotation
    JOINT rShin
    {
      OFFSET -2.1923 -43.463 -0.4931
      CHANNELS 3 Zrotation Xrotation Yrotation
      JOINT rFoot
      {
        OFFSET -0.7333 -45.8593 -2.6451
        CHANNELS 3 Zrotation Xrotation Yrotation
        End Site
        {
          OFFSET -2.6618 -4.2699 12.3931
        }
      }
    }
  }
}
MOTION
Frames:	4
Frame Time:	0.0333333
0 91.7903 2.51682 0 0 -0 0 0 -0 0 0 -0 0 0 -0 0.0016974 0 -0 1.94126e-019 0 -0 0.0016974 0 -0 1.66051 0.0835086 5.75766 -0.0175112 0.895433 15.7816 -2.98177e-016 1.98785e-016 3.18055e-015 -4.96962e-017 3.97569e-016 6.36111e-015 -4.96962e-016 3.97569e-016 3.18055e-015 -4.47266e-016 1.98785e-016 -0 -4.96962e-017 1.98785e-016 6.36111e-015 9.93923e-017 -1.98785e-016 6.36111e-015 -2.48481e-016 1.98785e-016 3.18055e-015 -1.10348e-032 1.98785e-016 3.18055e-015 9.93923e-017 -1.98785e-016 6.36111e-015 -2.48481e-016 1.98785e-016 3.18055e-015 -1.10348e-032 1.98785e-016 3.18055e-015 -4.96962e-017 1.98785e-016 6.36111e-015 9.93923e-017 -1.98785e-016 6.36111e-015 -2.48481e-016 1.98785e-016 3.18055e-015 -1.10348e-032 1.98785e-016 3.18055e-015 9.93923e-017 -1.98785e-016 6.36111e-015 -2.48481e-016 1.98785e-016 3.18055e-015 -1.10348e-032 1.98785e-016 3.18055e-015 0.0016974 0 -0 -1.4496 0.0636048 -5.0245 -1.74811 1.20616 -16.8394 -6.95746e-016 5.96354e-016 -3.18055e-015 -2.98177e-016 7.95139e-016 -3.18055e-015 9.93923e-017 3.97569e-016 -0 -1.98785e-016 7.95139e-016 -0 -2.98177e-016 3.97569e-016 -3.18055e-015 -1.98785e-016 0 3.18055e-015 -9.93923e-017 7.95139e-016 -3.18055e-015 6.95746e-016 3.97569e-016 -3.18055e-015 -1.98785e-016 0 3.18055e-015 -9.93923e-017 7.95139e-016 -3.18055e-015 6.95746e-016 3.97569e-016 -3.18055e-015 -2.98177e-016 3.97569e-016 -3.18055e-015 -1.98785e-016 0 3.18055e-015 -9.93923e-017 7.95139e-016 -3.18055e-015 6.95746e-016 3.97569e-016 -3.18055e-015 -1.98785e-016 0 3.18055e-015 -9.93923e-017 7.95139e-016 -3.18055e-015 6.95746e-016 3.97569e-016 -3.18055e-015 -4.66111 -0.998717 0.12318 0.00986924 1.54847 0.176523 4.65186 -0.572283 -0.254274 4.66111 -0.998765 -0.123176 -0.00986867 1.54869 -0.176537 -4.65186 -0.572453 0.25427 
37.7252 47.7568 21.047 -55.7727 37.952 -112.704 0.00329676 -1.47674 -0.0664518 0.00488626 -2.95347 -0.132875 0.00488256 -2.95349 -0.132883 -0.0201229 10.3601 -0.0250607 0.000402716 0.12567 -0.180073 -5.79651 0.00130437 0.261943 -36.9996 40.8448 6.29207 10.0375 25.3504 -1.35289 -4.85985 1.9672 0.0231292 -6.74043e-007 1.37169e-006 1.81832e-007 7.85004e-007 -5.31203e-007 -9.48559e-008 1.66441e-007 1.26073e-006 1.30465e-007 -3.97569e-016 0 -3.18055e-015 -6.74043e-007 1.37169e-006 1.81832e-007 7.85004e-007 -5.31203e-007 -9.48559e-008 1.66441e-007 1.26073e-006 1.30465e-007 -6.74043e-007 1.37169e-006 1.81832e-007 7.85004e-007 -5.31203e-007 -9.48559e-008 1.66441e-007 1.26073e-006 1.30465e-007 -3.97569e-016 0 -3.18055e-015 -6.74043e-007 1.37169e-006 1.81832e-007 7.85004e-007 -5.31203e-007 -9.48559e-008 1.66441e-007 1.26073e-006 1.30465e-007 -6.74043e-007 1.37169e-006 1.81832e-007 7.85004e-007 -5.31203e-007 -9.48559e-008 1.66441e-007 1.26073e-006 1.30465e-007 5.78469 0.00373674 -0.269222 37.2854 40.8215 -5.74148 -11.6658 25.3031 0.949267 4.84556 1.99607 0.0175094 3.18055e-015 -2.38542e-015 1.59028e-015 -5.31808e-007 -6.61058e-007 9.32306e-008 -3.31043e-032 -3.97569e-016 -4.77083e-015 1.59028e-015 7.95139e-016 -0 7.95139e-015 -2.3059e-014 -0 -5.31808e-007 -6.61058e-007 9.32306e-008 -1.59028e-015 -2.78299e-015 -4.77083e-015 7.95139e-015 -2.3059e-014 -0 -5.31808e-007 -6.61058e-007 9.32306e-008 -1.59028e-015 -2.78299e-015 -4.77083e-015 1.59028e-015 7.95139e-016 -0 7.95139e-015 -2.3059e-014 -0 -5.31808e-007 -6.61058e-007 9.32306e-008 -1.59028e-015 -2.78299e-015 -4.77083e-015 7.95139e-015 -2.3059e-014 -0 -5.31808e-007 -6.61058e-007 9.32306e-008 -1.59028e-015 -2.78299e-015 -4.77083e-015 -3.89692 -72.0033 19.5315 -3.4405 18.3478 -29.2893 15.6521 6.33989 5.16292 8.40842 -71.6926 -14.762 3.29189 18.4296 29.3543 -16.955 6.69923 -5.49644 
44.3962 27.7133 26.9787 100.903 76.4371 79.394 0.00620061 -1.99929 -0.0962499 0.00904005 -3.99854 -0.192453 0.00904067 -3.99853 -0.192453 0.0647552 15.0584 0.089132 0.000829436 0.182083 -0.26089 -9.05539 -0.159539 0.0949406 -54.638 59.1683 7.11256 19.8789 34.2317 -11.6879 -6.86598 2.54399 -0.0697035 1.59028e-015 2.38542e-015 3.18055e-015 4.77083e-015 2.38542e-015 6.36111e-015 1.59028e-015 -7.95139e-016 -0 1.59028e-015 2.38542e-015 3.18055e-015 -1.59028e-015 -1.66979e-014 9.54166e-015 3.18055e-015 7.95139e-016 -3.18055e-015 1.59028e-015 7.95139e-016 -0 -1.59028e-015 -1.66979e-014 9.54166e-015 3.18055e-015 7.95139e-016 -3.18055e-015 1.59028e-015 7.95139e-016 -0 1.59028e-015 2.38542e-015 3.18055e-015 -1.59028e-015 -1.66979e-014 9.54166e-015 3.18055e-015 7.95139e-016 -3.18055e-015 1.59028e-015 7.95139e-016 -0 -1.59028e-015 -1.66979e-014 9.54166e-015 3.18055e-015 7.95139e-016 -3.18055e-015 1.59028e-015 7.95139e-016 -0 9.08398 -0.169025 -0.0823594 55.007 59.141 -6.73343 -21.4651 34.0219 11.5424 6.84346 2.57949 0.121846 1.76556e-031 3.18055e-015 -3.18055e-015 -1.59028e-015 1.59028e-015 -0 1.56698e-007 3.91544e-007 6.17139e-008 0 0 -3.18055e-015 -3.18055e-015 3.18055e-015 -0 -1.59028e-015 3.18055e-015 -0 1.56698e-007 3.91544e-007 6.17139e-008 -3.18055e-015 3.18055e-015 -0 -1.59028e-015 3.18055e-015 -0 1.56698e-007 3.91544e-007 6.17139e-008 0 0 -3.18055e-015 -3.18055e-015 3.18055e-015 -0 -1.59028e-015 3.18055e-015 -0 1.56698e-007 3.91544e-007 6.17139e-008 -3.18055e-015 3.18055e-015 -0 -1.59028e-015 3.18055e-015 -0 1.56698e-007 3.91544e-007 6.17139e-008 119.411 -73.3704 147.74 0.804754 22.3473 -44.2397 21.2911 9.15812 7.38054 -123.861 -75.0712 -152.407 -1.09405 22.6231 44.354 -23.2012 9.48118 -7.83692 
42.4222 31.6454 26.8744 -0.101411 86.6159 -179.898 0.00458422 -1.56744 -0.0897129 0.00671594 -3.1349 -0.179401 0.00671593 -3.13491 -0.179401 0.256788 14.0941 0.342024 0.000715884 0.169194 -0.242439 -9.78199 -0.480407 -0.502995 -49.068 55.0871 6.68683 16.9737 32.6323 -8.48002 -6.01724 1.73349 -0.397026 1.59028e-015 -7.95139e-016 -6.36111e-015 2.38542e-015 0 3.18055e-015 -7.95139e-016 -7.95139e-016 -0 1.59028e-015 0 -6.36111e-015 1.59028e-015 7.95139e-016 1.27222e-014 7.95139e-016 0 -0 -7.95139e-016 -1.59028e-015 3.18055e-015 1.59028e-015 7.95139e-016 1.27222e-014 7.95139e-016 0 -0 -7.95139e-016 -1.59028e-015 3.18055e-015 1.59028e-015 0 -6.36111e-015 1.59028e-015 7.95139e-016 1.27222e-014 7.95139e-016 0 -0 -7.95139e-016 -1.59028e-015 3.18055e-015 1.59028e-015 7.95139e-016 1.27222e-014 7.95139e-016 0 -0 -7.95139e-016 -1.59028e-015 3.18055e-015 9.90396 -0.515677 0.562785 49.2881 55.0615 -6.25772 -18.5587 32.477 8.3081 5.99333 1.751 0.433038 2.85631e-007 -1.59945e-007 -8.10169e-008 -3.3438e-008 1.40673e-006 -8.99223e-006 -6.77891e-007 4.46832e-007 -3.08515e-006 -1.59028e-015 0 -3.18055e-015 2.85631e-007 -1.59945e-007 -8.10169e-008 -3.3438e-008 1.40673e-006 -8.99223e-006 -6.77891e-007 4.46832e-007 -3.08515e-006 2.85631e-007 -1.59945e-007 -8.10169e-008 -3.3438e-008 1.40673e-006 -8.99223e-006 -6.77891e-007 4.46832e-007 -3.08515e-006 -1.59028e-015 0 -3.18055e-015 2.85631e-007 -1.59945e-007 -8.10169e-008 -3.3438e-008 1.40673e-006 -8.99223e-006 -6.77891e-007 4.46832e-007 -3.08515e-006 2.85631e-007 -1.59945e-007 -8.10169e-008 -3.3438e-008 1.40673e-006 -8.99223e-006 -6.77891e-007 4.46832e-007 -3.08515e-006 101.566 -79.5087 129.158 -0.370644 20.9737 -40.9888 19.6902 8.88325 6.88943 -103.981 -81.3248 -131.707 0.135334 21.2105 41.0958 -21.4324 9.02056 -7.27443 
